<svg width="35" height="41" viewBox="0 0 35 41" fill="none" xmlns="http://www.w3.org/2000/svg">
<path d="M34.6204 9.96996L29.1804 6.82996L23.9404 9.84996L29.3904 13L34.6204 9.96996Z" fill="#E0684B"/>
<path d="M5.24 13.07L22.63 3.02L17.4 0L0 10.04L5.24 13.07Z" fill="#E0684B"/>
<path d="M11.7803 23.16L17.2303 26.3L22.6703 23.16L17.2303 20.02L11.7803 23.16Z" fill="#E0684B"/>
<path d="M29.56 13.0699V27.1099L17.4 34.1299L5.24 27.1099V13.0699L0 10.0399V30.1299L17.4 40.1799L34.79 30.1299V10.0399L29.56 13.0699Z" fill="#BB464B"/>
<path d="M17.4002 13.7999L11.9502 16.9399V23.2299L17.4002 20.0899L22.8402 23.2299V16.9399L17.4002 13.7999Z" fill="#BB464B"/>
<path d="M29.5604 13.0699L22.8404 16.9399V23.2299L17.4004 26.3699V34.1299L29.5604 27.1099V13.0699Z" fill="#E0DED8"/>
<path d="M5.24023 13.0699L11.9502 16.9399V23.2299L17.4002 26.3699V34.1299L5.24023 27.1099V13.0699Z" fill="#D5D2CA"/>
<path d="M22.6302 3.0199L29.3502 6.8999L24.1102 9.9199L29.5602 13.0699L22.8402 16.9399L17.4002 13.7999L11.9502 16.9399L5.24023 13.0699L22.6302 3.0199Z" fill="white"/>
</svg>
